<?xml version="1.0" encoding="UTF-8" standalone="no"?>
<svg
   version="1.1"
   viewBox="0 0 363.18202 363.182"
   id="svg7866"
   sodipodi:docname="logo.svg"
   inkscape:version="1.2 (dc2aedaf03, 2022-05-15)"
   width="363.18201"
   height="363.18201"
   xmlns:inkscape="http://www.inkscape.org/namespaces/inkscape"
   xmlns:sodipodi="http://sodipodi.sourceforge.net/DTD/sodipodi-0.dtd"
   xmlns="http://www.w3.org/2000/svg"
   xmlns:svg="http://www.w3.org/2000/svg">
  <defs
     id="defs7870" />
  <sodipodi:namedview
     id="namedview7868"
     pagecolor="#505050"
     bordercolor="#eeeeee"
     borderopacity="1"
     inkscape:showpageshadow="0"
     inkscape:pageopacity="0"
     inkscape:pagecheckerboard="0"
     inkscape:deskcolor="#505050"
     showgrid="false"
     inkscape:zoom="1.6959574"
     inkscape:cx="170.40522"
     inkscape:cy="205.19383"
     inkscape:window-width="1920"
     inkscape:window-height="1009"
     inkscape:window-x="-8"
     inkscape:window-y="372"
     inkscape:window-maximized="1"
     inkscape:current-layer="svg7866" />
  <rect
     style="fill:#222222;fill-opacity:1;stroke:none;stroke-width:24.881;stroke-linecap:round;paint-order:stroke fill markers"
     id="rect8199"
     width="363.18201"
     height="363.18201"
     x="0"
     y="0"
     rx="0"
     ry="55.556" />
  <g
     transform="translate(134.00115,110.035)"
     id="g7864"
     style="fill:#ffffff">
    <path
       d="m 39.771,-54.479 -4.58e-4,10e-4 -90.196,-5.16e-4 -52.917002,91.655 75.466002,130.709996 75.466,29.708 75.465998,-29.708 75.466,-130.709996 -52.917,-91.655 z m 90.196,27.086 37.279,64.569 -37.279,64.569 -58.919,-5.2e-4 37.278,-64.568 -37.279,-64.569 z m -105.83,5.16e-4 -37.279,64.569 37.279,64.569004 h -58.92 l -37.279,-64.569004 37.279,-64.569 z m 23.457,13.543 29.46,51.026 -29.459,51.025 -29.46,-51.025 z M 4.477,124.58052 c 10.118,-4e-5 18.32,8.2017 18.32,18.319 1.14e-4,10.118 -8.202,18.32 -18.32,18.32 -10.118,1e-4 -18.32,-8.202 -18.32,-18.32 2.29e-4,-10.118 8.2023,-18.319 18.32,-18.319 z m 86.236,0 c 10.117,2.1e-4 18.319,8.2019 18.319,18.319 1.1e-4,10.118 -8.2017,18.32 -18.319,18.32 -10.118,1e-4 -18.32,-8.202 -18.32,-18.32 2.3e-4,-10.118 8.2023,-18.319 18.32,-18.319 z"
       fill="#000"
       id="path7862"
       style="fill:#ffffff" />
  </g>
</svg>
